<?xml version="1.0" encoding="utf-8"?>
<!-- Generator: Adobe Illustrator 23.1.1, SVG Export Plug-In . SVG Version: 6.00 Build 0)  -->
<svg version="1.1" id="图层_1" xmlns="http://www.w3.org/2000/svg" xmlns:xlink="http://www.w3.org/1999/xlink" x="0px" y="0px"
	 viewBox="0 0 700 700" style="enable-background:new 0 0 700 700;" xml:space="preserve">
<path d="M454.7,174.1l7.9-2.5c-7.3-23.1-13.7-39.6-33.8-57.7l-5.5,6.2C440.4,135.5,446.6,148.7,454.7,174.1L454.7,174.1z"/>
<path d="M374.1,88.8c9.5,4,19.2,9.8,31.5,18.7l4.9-6.7c-12.8-9.2-23-15.3-33.1-19.6L374.1,88.8z"/>
<path d="M564,257.8l-5.9,5.9l21.3,21.5c9.4,9,4.2,25.1-8.7,27l-42.6,6.5v94.4c0,13.5-11,24.3-24.3,24.3h-52.3
	c-21-4.1-42.7-19.6-43.6-41.2l-8.3,0.4c1.2,26.1,26.4,44.5,50.8,49.1l53.5,0.1c18,0,32.6-14.6,32.6-32.6l0-87.2l35.6-5.5
	c19.9-3.1,27.4-27.7,13.2-41.3L564,257.8z"/>
<path d="M421.9,103l8.2-1.1c-2.3-17.8-9.5-40.1-17.7-55.8c57.4,10.9,92.6,35.6,118.2,92.9l-56.3,0v8.3h68.9
	C509.8,68.5,471.5,46.9,395.7,35.1C411,58.2,419.1,81.4,421.9,103L421.9,103z"/>
<path d="M381.7,40.8l0.9-8.2c-13.2-1.4-79.6-1.6-91-0.6l0.7,8.3C303.1,39.3,369.2,39.5,381.7,40.8L381.7,40.8z"/>
<path d="M325.1,81.1c7.6,0,16-0.2,26.4,1.6l1.4-8.2c-11.1-2-20.2-1.8-27.9-1.8L325.1,81.1L325.1,81.1z"/>
<path d="M535.4,269l-5.7-6c-14.1,13.3-20.8,15-37.3,12.4c-10.3,21.1-29.4,65.7-20.9,87.6c7.5,19.5-13,35.2-23.5,44.3l5.4,6.3
	c5-4.4,36.4-26.3,25.8-53.5c-6.3-16.3,7.8-53.9,18-75.5C515.2,286.5,524.8,279,535.4,269L535.4,269z"/>
<path d="M424.7,325.3c15.7-14.6,28.1-32.6,36.1-52.2c1.7,0.6,3.3,1.2,5,1.7l2.6-7.9c-3.6-1.2-7.3-2.6-12.5-4.4
	c-8,21.4-18.4,39.6-36.9,56.7L424.7,325.3z"/>
<path d="M540.6,197.1v37.3h58v-37.3H540.6z M590.3,226.1h-41.4v-20.7h41.4V226.1z"/>
<path d="M462.7,252.4l8,2.2c3-10.8,13.4-74.8,16-90.7h49.9v8.3h8.3v-16.6h-65.2C477.7,167.2,465.8,241.3,462.7,252.4L462.7,252.4z"
	/>
<path d="M525.5,188.8h39.9v-8.3h-40.9c-3.8,0-18.5,11-18.5,35.4c0,28.8,14.8,35,18.5,35h45.1v-8.3H525c-1.4-0.5-10.7-5-10.7-26.7
	C514.3,197.9,523.4,190.3,525.5,188.8L525.5,188.8z"/>
<path d="M263,31.4h16.6v8.3H263V31.4z"/>
<path d="M445.3,520.4H337.6v8.3l116,0v-70.4h-8.3L445.3,520.4z"/>
<path d="M358.3,429.2h8.3v74.6h-8.3V429.2z"/>
<path d="M242.3,172.3H134.5v74.6h107.7L242.3,172.3z M234,238.6h-91.2v-58H234V238.6z"/>
<path d="M187.8,273.5l-35.5,35.2l35.5,35.2l35.5-35.2L187.8,273.5z M164.1,308.7l23.7-23.5l23.7,23.5l-23.7,23.5L164.1,308.7z"/>
<path d="M213.2,396.3c0-13.8-10.9-24.6-24.8-24.6c-13.9,0-24.8,10.8-24.8,24.6c0,13.8,10.9,24.6,24.8,24.6
	C202.4,420.9,213.2,410.1,213.2,396.3L213.2,396.3z M188.4,412.6c-9.2,0-16.5-7.2-16.5-16.3s7.3-16.3,16.5-16.3s16.5,7.2,16.5,16.3
	C205,405.5,197.7,412.6,188.4,412.6L188.4,412.6z"/>
<path d="M179.4,438.9c-6.9,0-12.4,5.4-12.4,12.3c0,6.9,5.4,12.3,12.4,12.3c6.9,0,12.4-5.4,12.4-12.3
	C191.8,444.3,186.4,438.9,179.4,438.9z M179.4,455.2c-2.3,0-4.1-1.8-4.1-4s1.8-4,4.1-4s4.1,1.8,4.1,4S181.7,455.2,179.4,455.2z"/>
<path d="M205,445.8h37.3v8.3H205V445.8z"/>
<path d="M254.7,445.8H292v8.3h-37.3V445.8z"/>
<path d="M192.5,483.1v-8.3h-66.9l15-20.7l18.8-0.1v-8.2h-58v8.3h29l-15,20.7h-14.1v8.3L192.5,483.1L192.5,483.1z"/>
<path d="M228.8,479.7c0-6.9-5.4-12.3-12.4-12.3c-6.9,0-12.4,5.4-12.4,12.3s5.4,12.3,12.4,12.3C223.4,492,228.8,486.6,228.8,479.7z
	 M212.4,479.7c0-2.2,1.8-4,4.1-4c2.3,0,4.1,1.8,4.1,4s-1.8,4-4.1,4C214.1,483.7,212.4,481.9,212.4,479.7z"/>
<path d="M253.4,491.8c-6.9,0-12.4,5.4-12.4,12.3s5.4,12.3,12.4,12.3c6.9,0,12.4-5.4,12.4-12.3S260.3,491.8,253.4,491.8L253.4,491.8z
	 M253.4,508.1c-2.3,0-4.1-1.8-4.1-4s1.8-4,4.1-4s4.1,1.8,4.1,4C257.5,506.4,255.7,508.1,253.4,508.1L253.4,508.1z"/>
<path d="M101.4,499.6v8.3h25.9l12.5,20.7h77.5v-8.3l-72.9,0l-7.5-12.4h92.8v-8.3L101.4,499.6L101.4,499.6z"/>
<path d="M167.1,55.9c6.9,0,12.4-5.4,12.4-12.3s-5.4-12.3-12.4-12.3c-6.9,0-12.4,5.4-12.4,12.3S160.2,55.9,167.1,55.9z M167.1,39.7
	c2.3,0,4.1,1.8,4.1,4s-1.8,4-4.1,4s-4.1-1.8-4.1-4C163,41.4,164.8,39.7,167.1,39.7z"/>
<path d="M192.5,31.4h53.9v8.3h-53.9V31.4z"/>
<path d="M188.4,68.7v-8.3l-69.1,0l12.6-12.4l10.9-0.1l0-8.2l-14.2,0.1l-20.9,20.6l-6.3,0v8.3C131.7,68.7,160.5,68.7,188.4,68.7
	L188.4,68.7z"/>
<path d="M208.2,76.3c6.9,0,12.4-5.4,12.4-12.3s-5.4-12.3-12.4-12.3c-6.9,0-12.4,5.4-12.4,12.3S201.3,76.3,208.2,76.3z M208.2,60
	c2.3,0,4.1,1.8,4.1,4s-1.8,4-4.1,4c-2.3,0-4.1-1.8-4.1-4C204.1,61.8,205.9,60,208.2,60z"/>
<path d="M188.4,126.7v-8.3l-58,0l14.3-20.7h43.7v-8.3h-48l-20,29h-18.9v8.3C133.2,126.7,156.5,126.7,188.4,126.7L188.4,126.7z"/>
<path d="M229.8,60.4h20.7v8.3h-20.7V60.4z"/>
<path d="M205,118.4h45.6v8.3H205V118.4z"/>
<path d="M184.2,251h8.3v16.6h-8.3V251z"/>
<path d="M184.2,350.5h8.3V367h-8.3V350.5z"/>
<path d="M287.8,300.7h-49.7v8.3h41.4v78.7h-41.4v8.3h49.7V300.7z"/>
<path d="M208.2,104.8c6.9,0,12.4-5.4,12.4-12.3c0-6.9-5.4-12.3-12.4-12.3c-6.9,0-12.4,5.4-12.4,12.3
	C195.8,99.5,201.3,104.8,208.2,104.8z M208.2,88.5c2.3,0,4.1,1.8,4.1,4s-1.8,4-4.1,4c-2.3,0-4.1-1.8-4.1-4
	C204.1,90.3,205.9,88.5,208.2,88.5z"/>
<path d="M362.4,259.3c-11.4,0-20.7,9.3-20.7,20.7c0,11.4,9.3,20.7,20.7,20.7c11.4,0,20.7-9.3,20.7-20.7
	C383.1,268.6,373.9,259.3,362.4,259.3z M362.4,292.4c-6.9,0-12.4-5.6-12.4-12.4c0-6.9,5.6-12.4,12.4-12.4c6.9,0,12.4,5.6,12.4,12.4
	C374.9,286.9,369.3,292.4,362.4,292.4z"/>
<path d="M300.3,342.2h37.3v8.3h-37.3V342.2z"/>
<path d="M254.7,209.6h41.4v8.3h-41.4V209.6z"/>
<path d="M358.3,186.2l10,8.2l-24.7,20.4l14.7,12.1v11.6h8.3V223l-10-8.2l24.7-20.4l-14.7-12.1v-55.6h37.3v-8.3h-37.3V93.5h-8.3v24.9
	H263v8.3h95.3L358.3,186.2z"/>
<path d="M358.3,47.9h8.3v20.7h-8.3V47.9z"/>
<path d="M366.6,333.1v-11.6h-8.3V337l10,8.2l-24.7,20.4l14.7,12.1v26.6h8.3v-30.5l-10-8.2l24.7-20.4L366.6,333.1z"/>
<path d="M229.8,89.4h20.7v8.3h-20.7V89.4z"/>
<path d="M279.5,499.6h33.2v8.3h-33.2V499.6z"/>
</svg>
