<?xml version="1.0" encoding="utf-8"?>
<!-- Generator: Adobe Illustrator 23.1.1, SVG Export Plug-In . SVG Version: 6.00 Build 0)  -->
<svg version="1.1" id="图层_1" xmlns="http://www.w3.org/2000/svg" xmlns:xlink="http://www.w3.org/1999/xlink" x="0px" y="0px"
	 viewBox="0 0 700 700" style="enable-background:new 0 0 700 700;" xml:space="preserve">
<path d="M350,0C195.3,0,70,125.3,70,280s125.3,280,280,280s280-125.3,280-280S504.7,0,350,0z M449.7,115.8c9.9-9.9,25.9-9.9,35.7,0
	l28.7,28.7c9.9,9.9,9.9,25.9,0,35.7L495.3,199l-64.4-64.4L449.7,115.8z M238.9,108.4l47.4,47.4l-33.5,33.5l15.5,15.5l33.5-33.5
	l36.7,36.7L278,268.5L178.5,169L238.9,108.4z M178.4,451.6l34.9-98.4l63.5,63.5L178.4,451.6z M290.4,404.1L226,339.7l192-192
	l64.4,64.4L290.4,404.1z M461.1,451.6l-99.5-99.5l60.5-60.5l36.7,36.7l-33.5,33.4l15.5,15.5l33.5-33.5l47.4,47.4L461.1,451.6z"/>
</svg>
