<?xml version="1.0" encoding="UTF-8"?>
<svg width="700pt" height="700pt" version="1.1" viewBox="0 0 700 700" xmlns="http://www.w3.org/2000/svg">
 <path d="m590.62 21.875c60.406 0 109.38 48.969 109.38 109.38v306.25c0 60.406-48.969 109.38-109.38 109.38h-481.25c-60.406 0-109.38-48.969-109.38-109.38v-306.25c0-60.406 48.969-109.38 109.38-109.38zm-368.68 355.95c-2.625-6.3008-6.1719-14.305-10.633-24.02-4.1992-9.7109-8.793-20.211-13.781-31.5-4.9883-11.285-10.367-22.836-16.145-34.648-5.5117-12.074-10.762-23.363-15.75-33.863-4.9883-10.762-9.7109-20.344-14.176-28.742-4.1992-8.4023-7.6094-14.832-10.234-19.293-2.8906 30.973-5.25 64.574-7.0898 100.8-1.8359 35.965-3.4102 72.32-4.7227 109.07h-37.406c1.0469-23.625 2.2305-47.383 3.543-71.27 1.3125-24.148 2.7539-47.773 4.332-70.875 1.8359-23.363 3.6719-46.066 5.5117-68.117 2.0977-22.051 4.332-42.918 6.6914-62.605h33.469c7.0898 11.547 14.703 25.199 22.84 40.949s16.273 32.285 24.41 49.613c8.1406 17.062 16.016 34.254 23.625 51.578 7.6133 17.062 14.57 32.684 20.871 46.859 6.3008-14.176 13.254-29.797 20.867-46.859 7.6133-17.324 15.488-34.516 23.625-51.578 8.1367-17.328 16.277-33.863 24.414-49.613s15.75-29.402 22.836-40.949h33.469c8.9258 87.938 15.621 178.89 20.082 272.87h-37.406c-1.3125-36.75-2.8867-73.105-4.7266-109.07-1.8359-36.223-4.1992-69.824-7.0859-100.8-2.625 4.4609-6.168 10.891-10.633 19.293-4.1992 8.3984-8.793 17.98-13.781 28.742-4.9844 10.5-10.367 21.789-16.141 33.863-5.5156 11.812-10.766 23.363-15.75 34.648-4.9883 11.289-9.7148 21.789-14.176 31.5-4.1992 9.7148-7.6133 17.719-10.238 24.02zm215.55-40.637c-8.543-8.543-8.543-22.395 0-30.938s22.395-8.543 30.938 0l32.262 32.262v-182.96c0-12.082 9.793-21.875 21.875-21.875s21.875 9.793 21.875 21.875v182.96l32.262-32.262c8.543-8.543 22.395-8.543 30.938 0 8.543 8.543 8.543 22.395 0 30.938l-69.605 69.605c-8.543 8.543-22.395 8.543-30.938 0z" fill-rule="evenodd"/>
</svg>
