<?xml version="1.0" encoding="utf-8"?>
<!-- Generator: Adobe Illustrator 23.1.1, SVG Export Plug-In . SVG Version: 6.00 Build 0)  -->
<svg version="1.1" id="图层_1" xmlns="http://www.w3.org/2000/svg" xmlns:xlink="http://www.w3.org/1999/xlink" x="0px" y="0px"
	 viewBox="0 0 700 700" style="enable-background:new 0 0 700 700;" xml:space="preserve">
<path d="M517.2,61.5c-0.4-0.5-0.9-0.9-1.5-1.2c-20.7-15.6-43.7-28.4-68.3-37.8c-0.6-0.5-1.4-0.7-2.2-0.9c-29.7-11-61.8-17-95.3-17
	c-75.6,0-144.1,30.6-193.9,80.1c-0.6,0.4-1.1,0.9-1.5,1.5C105.2,136.1,74.7,204.5,74.7,280c0,27.6,4.1,54.2,11.7,79.3
	c0,0.2,0.1,0.4,0.2,0.6c2.7,8.8,5.8,17.4,9.3,25.8c0.1,0.3,0.2,0.6,0.3,0.8c39.2,93.1,128.2,160.2,233.5,168c0.2,0,0.3,0.1,0.5,0.1
	c0.1,0,0.1-0.1,0.2-0.1c6.5,0.5,13.1,0.8,19.7,0.8c39.7,0,77.4-8.5,111.5-23.7c0.6-0.2,1.3-0.4,1.8-0.8
	c95.4-43.3,162-139.4,162-250.8C625.3,191,582.9,111.9,517.2,61.5L517.2,61.5z M614.4,250.8c-30.7-4.6-60.9-12.8-89.6-24.7
	c0.3-1.5,0.5-3.1,0.5-4.7c0-12.8-9.5-23.2-21.9-24.9c-3-38.9-11.6-77-25.8-113.2c5.5-3.6,9.6-9.3,11-16c7.8,0.4,15.6,0.9,23,1.8
	C567.7,112,606.2,176.9,614.4,250.8L614.4,250.8z M371.7,502.6c0-8.8,7.2-15.9,15.9-15.9c8.8,0,15.9,7.2,15.9,15.9
	s-7.2,15.9-15.9,15.9C378.8,518.6,371.7,511.4,371.7,502.6z M400.4,481c-3.8-2.2-8.1-3.6-12.8-3.6c-8.5,0-15.9,4.2-20.5,10.6
	c-23-12-44.8-26.4-64.9-42.8c1.2-2.3,2.2-4.8,2.6-7.5c47.7-1.8,93.9-12,137.6-30.4c1.4,2.3,3.2,4.2,5.2,6
	C434.4,437.4,418.5,460.2,400.4,481L400.4,481z M104.1,381.4c-3.1-7.5-5.9-15.1-8.3-22.8c10.9-43.5,29.4-84.6,54.9-122.3
	c3.2,1.7,6.7,2.7,10.4,2.9c16.4,67.2,50.3,129.1,98.4,179.4c-1.8,2.5-3.2,5.4-4,8.6C202.1,422.5,151.2,407.1,104.1,381.4
	L104.1,381.4z M159.2,145.1c0-17.8,1.3-36,3.8-54.1c38-37.6,87.3-63.8,142.2-73.2c6.3,15.5,13.6,30.8,21.9,45.5
	c-5.6,4.6-9.2,11.6-9.2,19.4c0,1.8,0.2,3.5,0.5,5.1c-55.1,22.9-105.1,58.7-144.8,103.8c-3.4-1.7-7.1-2.7-11.1-2.7
	c-0.3,0-0.6,0.1-0.9,0.1C160.1,174.5,159.2,159.8,159.2,145.1L159.2,145.1z M368.5,82.6c0-0.7-0.2-1.4-0.2-2.2
	c23.2-6.4,47-10.6,71-12.5C442,79,452,87.3,463.8,87.3c1.8,0,3.5-0.2,5.2-0.5c13.7,35.2,22.2,72.2,25.1,110c-5.1,1.2-9.6,4.1-13,7.9
	C435,178.6,393.9,142.2,362,99.5C366,95,368.5,89.2,368.5,82.6L368.5,82.6z M488.7,57.8c-0.3-2-0.8-3.9-1.6-5.7c3.3,2,6.5,4,9.7,6.1
	C494.1,58.1,491.4,57.9,488.7,57.8L488.7,57.8z M456.6,37.9c-0.4-0.7-0.8-1.4-1.2-2.1c1.1,0.5,2.2,1,3.2,1.5
	C458,37.4,457.3,37.7,456.6,37.9L456.6,37.9z M463.8,46.1c8.8,0,15.9,7.2,15.9,15.9c0,8.8-7.2,15.9-15.9,15.9
	c-8.8,0-15.9-7.2-15.9-15.9C447.9,53.2,455,46.1,463.8,46.1z M463.8,368.8c-13.9,0-25.3,11.3-25.3,25.3c0,1.6,0.2,3.1,0.5,4.6
	c-42.6,17.9-87.8,27.9-134.2,29.7c-2.3-11.6-12.5-20.3-24.8-20.3c-5,0-9.7,1.5-13.7,4.1c-46.7-48.8-79.7-109-95.8-174.2
	c10.1-3.3,17.4-12.7,17.4-23.9c0-6.6-2.6-12.5-6.7-17c38.7-43.7,87.3-78.5,140.9-100.8c4.5,6.9,12.3,11.6,21.2,11.6
	c4.1,0,7.9-1.1,11.3-2.8c32.6,43.7,74.6,80.8,121.8,107.6c-1,2.7-1.6,5.5-1.6,8.6c0,12.2,8.6,22.3,20.1,24.7
	c-2,42.4-10.9,83.9-26.5,123.2C466.9,369,465.4,368.8,463.8,368.8L463.8,368.8z M500,237.3c-8.8,0-15.9-7.2-15.9-15.9
	c0-8.8,7.2-15.9,15.9-15.9c8.8,0,15.9,7.2,15.9,15.9C515.9,230.1,508.8,237.3,500,237.3L500,237.3z M343.3,98.6
	c-8.8,0-15.9-7.2-15.9-15.9c0-8.8,7.2-15.9,15.9-15.9s15.9,7.2,15.9,15.9C359.2,91.4,352.1,98.6,343.3,98.6z M162.6,198.2
	c8.8,0,15.9,7.2,15.9,15.9c0,8.8-7.2,15.9-15.9,15.9c-8.8,0-15.9-7.2-15.9-15.9C146.7,205.3,153.8,198.2,162.6,198.2L162.6,198.2z
	 M280,417.4c8.8,0,15.9,7.2,15.9,15.9c0,8.8-7.2,15.9-15.9,15.9c-8.8,0-15.9-7.2-15.9-15.9C264.1,424.6,271.2,417.4,280,417.4z
	 M447.9,394.1c0-8.8,7.2-15.9,15.9-15.9c8.8,0,15.9,7.2,15.9,15.9c0,8.8-7.2,15.9-15.9,15.9C455,410,447.9,402.9,447.9,394.1z
	 M477,372.7c15.9-40.4,25-82.9,27.1-126.5c7.2-1.2,13.4-5.5,17.2-11.5c28.2,11.7,57.8,19.9,88,24.6
	c-32.8,48.1-76.4,88.7-126.9,117.8C480.9,375.4,479,373.9,477,372.7L477,372.7z M441.5,30.2c2.3,4,4.6,8,6.8,12
	c-5.1,4-8.5,9.8-9.4,16.4c-24.7,1.9-49.2,6.3-73.1,12.8c-4.1-8.3-12.6-14.1-22.6-14.1c-2.8,0-5.4,0.6-7.9,1.4
	c-7.7-13.7-14.6-27.9-20.5-42.4c11.5-1.5,23.2-2.4,35.2-2.4C382.2,14,413,19.7,441.5,30.2L441.5,30.2z M152.5,102.1
	c-1.5,14.4-2.6,28.8-2.6,43c0,15.4,0.9,30.8,2.7,45.8c-8.9,3.9-15.2,12.8-15.2,23.2c0,6.2,2.4,11.9,6.1,16.3
	c-23.3,34.2-40.9,71.2-52.4,110.2c-4.6-19.5-7-39.7-7-60.6C84,211.6,110,149.2,152.5,102.1L152.5,102.1z M110.2,395
	c45.3,23.1,93.9,37.1,144.8,41.5c1.6,12.4,12.1,22.1,25,22.1c6.3,0,11.9-2.4,16.4-6.2c20.7,16.9,43.2,31.7,66.9,44
	c-0.5,2-0.9,4-0.9,6.2c0,4.8,1.4,9.2,3.7,13c-11.8,10.5-24.3,20.4-37.2,29.4C232.4,537.4,150.3,478.2,110.2,395L110.2,395z
	 M343.5,545.8c9.9-7.3,19.6-15,28.8-23.2c4.3,3.3,9.5,5.3,15.3,5.3c8.8,0,16.5-4.5,21-11.3c12.1,4.5,24.5,8.2,37,11.5
	C416,539.6,383.7,546,350,546C347.8,546,345.7,545.9,343.5,545.8L343.5,545.8z M459.8,522.2c-16.1-3.7-32.1-8.5-47.5-14.2
	c0.4-1.7,0.6-3.5,0.6-5.3c0-5.9-2.1-11.2-5.5-15.5c18.6-21.3,34.8-44.5,48.3-69.2c2.6,0.9,5.2,1.4,8.1,1.4
	c13.9,0,25.3-11.3,25.3-25.3c0-3.2-0.7-6.2-1.7-9.1c50.9-29.3,95-70.2,128.3-118.5c0.2,4.5,0.3,9,0.3,13.5
	C616,387.5,551.8,480.3,459.8,522.2L459.8,522.2z"/>
</svg>
