<?xml version="1.0" encoding="UTF-8"?><svg xmlns="http://www.w3.org/2000/svg" width="300" height="300" viewBox="0 0 300 300" shape-rendering="geometricPrecision" text-rendering="geometricPrecision" image-rendering="optimizeQuality" fill-rule="evenodd" clip-rule="evenodd"><defs><style>.fil1{fill:#01607c}.fil2{fill:#fefefe}.fil0{fill:#fff}</style></defs><g id="图层_x0020_1"><path class="fil0" d="M196.5 24.72c.89-.58 1.96-2.68 1.5-3.64-.38.56-.68 1.19-1.08 1.84-.81 1.3-.96.9-.42 1.8zM205.04 28.48c-.23-1.38-.62-1.22-1.73-.35.71.76.76.89 1.73.35zM198.95 29.25c.69.35.93.06 1.55-.38-.94-.6-.96-.71-1.55.38zM200.83 31.88l1.44.88c.02-1.2-.43-1.48-1.44-.88zM194.62 28.39c.12-.29 1.03-.49.18-1.49-.73 1-.7.68-.18 1.49zM202.19 26.13c1.1-.27.7.06.97-.86-1.02.14-1.01-.16-.97.86zM201.02 24.64c1.36-.21.88.12.92-.82l-.92.82z"/><path class="fil1" d="M56.47 184.48l187.06.01c-4.39 16.44-20.46 35.27-33.87 45.42-35 26.5-84.06 26.55-119.14.19-13.13-9.87-30.11-29.45-34.05-45.62zm104.95-41.88c-4.44-.21-11.87-3.95-16.67-4.62-12.09 10.61-8.09 10.82-17.26 10.75-4.24-.04-5.8 2.4-9.27 4.75-2.55 1.73-5.64 4.19-8.12 6.12-5.08 3.96-5.99.85-11.48 1.51-2.53.3-8.01 2.76-10.04 4.34-3.56 2.76-8.73 11.62-12.5 15.52l-20.87-.02c-11.26-29.16-3.5-67.71 15.75-91.99 54.63-68.91 159.78-40.28 176.69 40.26 3.29 15.66 3.02 36.69-2.89 51.73-3.27 0-8.19-7.65-8.57-9.16-1.17-4.68-3.5-7.87-6.41-11.57-6.61-8.41-12.65-4.32-16.92-10.07-1.29-1.74-2.3-3.73-3.99-5.16l-8.44 2.66-2.36-7.01-7.02-.03-6.85-12.09c-7.31.7-7.49 1.48-12.73 5.82-3 2.48-7.41 5.28-10.05 8.26zm-20.28-93.55C85.27 54 43.98 103.15 49.05 159.14c5.03 55.66 54.25 96.69 109.94 91.78 24.8-2.18 51.2-14.75 67.23-34.07 8.16-9.83 14.03-19.82 19.16-31.49 4.75-10.81 6.65-32.33 5.55-44.47-5.06-55.61-54.05-96.79-109.79-91.84z"/><path class="fil1" d="M2.45 155.25C-.18 73.79 62.98 5.48 144.51 2.47c81.23-3 150.04 60.6 152.98 141.9 2.94 81.47-60.58 150.4-142.23 153.12C73.97 300.2 5.09 236.73 2.45 155.25zM0 141.8v14c.73 5.31.8 10.77 1.61 16.27 4.62 31.39 19.58 61.6 42.11 83.83 23.31 23 51.5 37.41 83.67 42.39 5.53.86 11.23.88 16.53 1.71h12.14c5.08-.8 10.59-.81 15.89-1.62 15.2-2.32 27.49-6.08 41.57-12.49 40-18.19 70.13-55.16 81.45-97.39 1.32-4.93 2.37-9.89 3.16-14.94.8-5.08.9-11.48 1.87-16.11V143.9c-.8-5.05-.81-10.57-1.61-15.86-.76-5.09-1.76-10.03-3-15.03-6.28-25.34-20.38-50.07-38.73-68.54-22.25-22.4-51.13-37.48-82.35-42.52-5.24-.84-11.22-.98-16.12-1.95h-15.37c-5.17.85-10.76.96-16.17 1.8C77.27 9.53 36.73 40.32 14.57 85.45c-4.05 8.25-7.23 17.11-9.58 25.99-4.19 15.79-3 20.87-4.99 30.36z"/><path class="fil1" d="M64.24 196.76l.17.09c.46.48 20.66-1.73 22.96-1.87 26.62-1.64 43.19.16 69.76 4.07 15.69 2.32 30.63 3.02 46.46 1.53 7.14-.67 14.14-1.72 21.06-3.67 3.85-1.09 14.83-5.06 16.53-8.6-6.03 2.09-6.78 4.46-18.55 6.63-21.75 4.03-47.87.1-69.53-3.03-15.86-2.3-30.08-4.45-46.23-3.42-8.79.56-35.46 4.33-42.63 8.27z"/><path class="fil1" d="M71.09 207.95l.18.07c.08.08 19.38-1.7 21.34-1.82 25.08-1.58 39.56.11 64.55 3.78 14.88 2.18 28.45 2.91 43.47 1.52 7.35-.68 31.61-4.56 34.94-11.6-5.18 1.73-5.52 4.01-17.04 6.23-33.95 6.55-73.07-8.16-107.9-6.06-9.41.56-31.26 3.93-39.54 7.88z"/><path class="fil1" d="M80.92 218.68c14-.75 25.88-2.27 40.22-1.83 28.06.86 48.61 8.89 76.46 5.91 7.08-.76 26.86-4.8 30.47-11.21-2.43.84-4.86 2.58-7.43 3.49-8.98 3.18-18.43 3.76-27.9 3.43-34.1-1.21-58.75-12.07-95.25-4.41-1.32.28-17.13 3.84-16.67 4.56l.1.06zM200.83 31.88c1.01-.6 1.46-.32 1.44.88l-1.44-.88zm4.57.36c.41-.93 1.71-1.85 2.79-2.4-.25.86-.25 1.22-.98 1.9-.9.84-1.12.78-1.81.5zm-6.45-2.99c.59-1.09.61-.98 1.55-.38-.62.44-.86.73-1.55.38zm4.36-1.12c1.11-.87 1.5-1.03 1.73.35-.97.54-1.02.41-1.73-.35zm-8.69.26c-.52-.81-.55-.49.18-1.49.85 1-.06 1.2-.18 1.49zm7.57-2.26c-.04-1.02-.05-.72.97-.86-.27.92.13.59-.97.86zm-.25-2.31c-.04.94.44.61-.92.82l.92-.82zm-5.44.9c-.54-.9-.39-.5.42-1.8.4-.65.7-1.28 1.08-1.84.46.96-.61 3.06-1.5 3.64zm2.52-4.67c-2.33-.74-1.15-1.5-3.59-1.16-1.76 2.23-2.3 5.98-3.43 8.45l-2.59-.32c.31-2.33 1.4-.9.91-3.26-3.79-3.58-9.34 5.31-8.05 8.49 2.79 1.35 4.24-1.98 7.09-1.96 2.29.02 5.74 1.39 7.74 2.49 2.08 1.15 11.49 6.5 11.63 8.32l-3.66.21c-1.17-3.67-3.23-4.54-6.83-5.94-4.96-1.93-11.37-5.93-9.31.71 3.23 1.06 7.74.73 10.44 3.6-1.64.9-2.57.13-3.97-.56l-1.06 1.47c-1.9-.83-4.04-1.9-6.02-2.82-2.84-1.33-4.56.48-3.93 3.32 1.83 1.26 4.4 1.17 6.54 1.95-.03 1.86-1.07 4.21-2.68 5.09-4.56-.13-4.54-5.56-7.02-5.95-1.04 1.75.81 5.78 1.89 7.18 1.39 1.79 4.42 3.59 7.01 3.28 5.09-.6 3.94-3.09 5.6-4.69 2.42-2.33 3.19 2.11 7.56.12 1.2-5.75-2.29-3.97-4.17-5.32 5.35-2.7 13.42 5.45 16.58 1.49 1.31-3.77-5.07-5.1-5.94-8.47 1.1-.35 2.33-1.18 3.11-1.39 1.9-.53 1.95.61 4.06-.1.4-.65.73-5.05.41-5.93-.98-1.26-3.94-2.82-5.41-2.11-1.15 1.18-.85 2.47-.84 4.15-1.69-1 .27-.55-1.31-1.31-1.45-.7-.37.48-2.02-.39.22-4.04 3.37-1.4 3.93-5.71-4.06-3.15-2.2-.11-5.07 1.01-3.77-2-4.08-5.76-4.15-5.91-2.03-.21-2.46.4-3.45 1.97zM27.21 93.89c-3.15-.07-9.05-2.39-9.49 2.12 1.2 2.4 5.8 3.02 7.83 5.2 2.09 2.25 1.96 7.53 2.53 10.7 5.83.27 5.31-5.39 10.09 3.31.49.91 1.46 1.87.83 2.42-.63.55-.31.03-.97-.08-1.37-.23-.99-.39-1.88.19.63 1.58 1.94 2.58 3.11 3.86 1.92 2.08 1.46 2.53 4.86 2.24 2.18-2.74 2.47-3.74 1.6-7.6-1.26-5.67-4.07-8.64-7.92-12.3-2.95-2.81-3.65-2.12-3.21-7.17 1.69.05 1.71 1.01 3.18 1.96 2.44 1.58 8.76 4.26 12.22 3 3.8-1.38 6.3-15 6.24-15.15-2.81-3.15-10.73-4.54-15.02-5.24 1.67 2.97 9.76 4.82 9.64 8.17-.05 1.2-1.25 6.07-1.92 7.04-1.43 2.06-4.59.15-6.11-1-4.16-3.16-10.61-16.13-14.36-9.72-1.36 2.33-1.33 5.45-1.25 8.05zM100.7 39.75c.05 2.32-1.91 4.62-3.71 5.71-.65-2.51-.93-5.59-2.86-7.48-.98 1.44-.86 4.25-2.25 5.98-.72-.96-1.4-2.59-1.97-3.73-1.14-2.28-1.04-1.38-2.41-3.1 3.32-2.14 2.28-3.1-.07-5.31-1.66-1.56-.21-.93-2.64-1.87-1.42-.54-1.55-1.08-2.97-1.42-1.92 1.04-2.18 3.75-1.18 5.57 1.68 3.04 1.84 2.03 4.85 2.72-.08.47-.52 7.02-.49 7.44.18 1.98 1.81 3.42 2.86 5.13 1.63 2.63 4.21 9.32 8.27 6.99.68-.79.86-7.22 1.12-9.07 2.29.19 2.7 1.96 5.68 2.23 9.91-11.14 11.74-2.94 11.6-14.29-.96-.48-3.76-.97-4.97-.34-1.36.7-1.59 1.92-3.44 2.55-1.21-3.93 6.01-2.89 3.89-13.22-3.43-.86-13.98 9.07-14.05 11.39-.08 2.87 3.01 2.97 4.74 4.12zM169.08 263.62c3.61.07 3.49 1.64 4.13 9.39-2.88-1.61-7.84-5.54-10.58-7.78-2.47-2-3.89-.95-7.02-.55-2.67.33-6.49-.86-8.74.07 2.99 2.59 3.08-2.06 2.56 8.61-.17 3.25-.03 6.41-3.72 7.27-3.59.85-6.54-.27-6.68-4.23-.08-2.39.35-8.67.85-10.97 1.66-.72 2.03-.04 2.97-1.13l-10.92-.79c.64 1.31.76.77 2.33 1.48.85 8.12-4.28 16.14 7.48 17.05 11.83.9 8.23-8.11 9.75-15.87 6.63-2.64 6.01 3.85 7.01 11.48.51 3.86-1.06 2.28-2.3 4.45 1.81-.15 5.98-.32 7.22-1.23l-2.86-.74c-.86-2.25-1.46-8.84-1.74-11.49 4.02 1.78 13.67 11.23 16.77 11.5-.18-4.48-2.2-12.57-1.78-16.38 2-1.34 2.53-1.88 5.13-1.62.92 1.44 2.16 6.57 2.71 8.49 2.47 8.66.3 4.28-.97 7.64 1.82-.32 9.89-2.36 10.83-3.4l-3.08-.15c-.82-2.17-3.8-12.23-3.78-14.07 1.5-1.41 1.47-.55 2.34-2.14-2.69.58-6.53 1.66-9.16 2.53-4.81 1.6-1.22.8-6.7 1.54-2.08.28-1.59-.17-2.05 1.04zM115.32 69.29c2.14-.28 8.53-1.37 10.2-2.28 2.54-1.38 4.99-3.5 7.6-4.48 2.02 1.06 6.91 4.7 8.69 4.85 2.97.26 10.11-1.78 12-.07-.36 1.32.21.54-1.01 1.17-1.1.57-9.12 1.17-10.59 2.47-1.27 1.12-18.35 23.1-16.5 27.23 2.16 3.09 12.84.21 16.82-.18 6.59-.65 32.74-3.38 37.49-1.63 3.52 1.3 9.63 6.73 9.77 10.58-3.86.69-2.9-1.32-4.84-1.88-2.09 8.53 5.6 15.36 12.01 19.35 6.25 3.88 13.26 9.1 20.03 12.47l-.73 2.52c-2.75-.92-8.81-5.07-11.81-6.74-3.94-2.18-7.9-4.69-11.84-6.91-11.42-6.45-13.74-10.04-27.6-4.98-19.28 7.05-40.28-4.4-56.9-13.46 1.54-7.78 5.17-11.19 10.4-18.44 1.74-2.42 11.45-15.1 11.78-16.67-4.47-1.12-12.97 2.17-14.97-2.92zm-1.47-.29c.44 1.22 1.12 1.64 2.05 2.59 1.52 1.54 1.41 1.34 3.71 1.35 3.07 0 6.15-.06 9.22-.01L117.15 89.4c-3.95 5.26-9.74 11.59-9.98 18.62 3.87 1.52 8.61 4.4 12.5 6.32 13.92 6.85 29.59 12.9 45.23 7.43 14-4.88 16.08-1.64 27.81 5.02 3.66 2.08 21.82 13.36 24.06 13.81l1.4-4.13c-2.46-.75-16.44-9.91-19.15-11.88-6.53-4.75-13.7-8.25-13.44-17.73 2.33 1.07 2.04 1.82 4.82.64 1.28-3.39-5.36-9.58-8.16-11.11-5.11-2.8-12.94-1.34-18.72-.96-6.23.41-12.48.9-18.68 1.45-3.52.32-16.24 3-18.1.96-2.11-3.02 14.86-25.54 16.67-26.45 2.25-1.14 9.6-1.45 11.73-2.73l-1.38-2.97c-2.58.09-10.49 1.14-12.3.65-1.86-.5-7.11-4.59-8.4-4.66-1.57-.09-6.22 3.75-8.2 4.66-3.28 1.52-7.99.91-11.01 2.66zM260.24 103.87c-3.61 4.41-13.52-3.84-8.46 13.67 2.36 8.13 11.7-1.05 11.71-1.05 2.34-1.39 3.31-.35 2.98-3.09-1.74.06-5.95 2.95-9.33 1.52-1.06-.7-1.94-2.97-1.57-4.3 1.58-1.85 5.88-1.46 8.21-1.76 3.82-.5 3.07 2.74 6.98 2.56.59-5.57-2.74-4.53-7.92-13.5-1.09-1.89-1.53-3.92-3.73-3.77-1.4 1.59-.76 3.39-1.48 5.01-5.53 0-6.74-5.58-9.74-5.76-1.72 6.19 1.46 7.54 7.16 9.67 1.84.69 3.85.19 5.19.8zM201.17 252.19c2.54 2.37-2.2-.47.63.31 1.82.51.56-.26 2.29.15.86 1.66.52 9.07.1 11.14l-8.89-6.66c.6-2.49.91-.49 2.12-2.79l-9.94 4.32c.85.84-.02.12 1.17.48 2.08.64.66-.3 3.61 1.97 2.24 1.72 11.81 9.31 12.99 9.05 2.61-6.13-3.27-21.57 5.66-20.85l7.21 10.35c1.31 2.39-.46 2.19-.89 3.87 2.96-.7 11.96-9.08 15.47-10.25-.28-1.62-1.07-4.76-2.46-5.37-.72 2.59.39 3.71-1.77 6.43-1.14 1.43-2.98 3.12-4.97 3.38-1.11-.77-3.49-4.44-4.12-5.74 5.55-2.58 5.26.92 6.74-.05.16-.46-4.1-6.68-4.87-6.8-1.17 2.12 1.72 3.71-2.74 6.15-2.18-4.27-6.61-5.6.8-8.73 3.35-1.42 3.63.68 6.13.89-.4-1.99-1.7-2.52-2.44-4.5-1.89.5-8.86 5.56-10.71 7.08-2.65 2.17-7.72 5.44-11.12 6.17z"/><path class="fil1" d="M272.32 88.17l-3.08-.63c-1.35 1.37-1.58 3.91-3.74 2.96-2.49-3.28 3.24-2.86 3.38-6.12-2.28-1.39-3.9-.24-6.61.15-2.58.38-5.19.5-7.78.77-1.02.1-2.74.44-3.67.42-1.6-.04-1.4-.73-3.11-.35-2.6.58-2.88 3.67-2.19 5.91 3.17 1.64 4.54.32 7.41-.72 1.17-.42 7.17-1.36 7.95-.87.54.74-1.57 4.12 2.08 5.18 2.93.85 4.19-1.33 6.37-2.56 3.69-2.08 8.11 3.53 12.9 3.13 1.83-2.95-1.73-4.08-3.31-6.87-.57-.99-4.73-5.29-5.89-6.42-2.79 1.83-.53 3.57-.71 6.02zM235.92 237.83c-.87-.47-3.59-2.91-4.31-3.73-1.64-1.85.41-3.68 2.18-4.08 4.26-.97 6.57 4.98 2.13 7.81zm-11.65.32c4.03-.71.15-3.52 8.08 3.87 6.73 6.27 4.8 4.34 3.85 7.8 1.19-.4 7.3-6.62 7.79-7.82-2.09.23-1.89 1.98-4.28-.2-.96-.87-2.98-2.41-2.87-3.45 1.98-.76 8.12.42 10.74.48l4.5-4.74c-4-.05-6.88-.22-10.89-.59.29-1.98 2.29-5.41-.84-6.98-2.34-1.18-5.01.22-6.77 1.8-1.76 1.57-8.64 8.16-9.31 9.83zM116.22 276.66c.89-1.27.86-2.55 1.51-3.71 1.15-2.08 1.69-.3 3.21-1.08-.65-1.16-8.74-3.42-10.54-3.86.83 1.38 1.02.84 2.47 1.89.05 1.69-.5 3.54-1.42 4.96-11.82 1.7-7.25-20.41 2.89-15.32 3.55 1.77 3.01 5.68 4.91 6.88.98-1.36 1.84-4.06 1.96-5.79-3.48.29-.18 1.86-5.18-1.29-5.07-3.19-13.85-3.32-16.37 3.45-3.58 9.61 9.05 14.28 16.56 13.87zM74.06 258.59c2.31.61 4.16 2.94 6.49 3.12-1.42-3.5-3.18-.84.08-6.33 1.06-1.78 2.54-4.75 3.75-6.16 1.98 3.5 3.76 17.17 5.99 19.17 1.35-1.07 7.02-11.54 8.26-13.72l2.9.17c-.2-1.32-4.33-3.34-5.82-3.84.09 2.42 4.17.93-2.71 10.29-.94-1.26-2.64-8.73-3.24-10.89-.71-2.52-.36-3.46-2.55-4.62-1.46-.77-3.07-2.02-4.61-2.33.41 2.16 1.89 2.16.58 4.72-.67 1.32-1.81 2.95-2.57 4.19-.77 1.24-1.6 2.8-2.31 4.07-1.59 2.82-1.51 1.38-3.34 1.77-1.48.32.48-.88-.9.39zM277.39 106.3c-4.79.73-3.22-2.85-8.37-6.46l4.69.71c.81 1.37 3.55 4.49 3.68 5.75zm-10.2-9.37c-.36 1.62.07 1.88 1.17 2.95-.37.71-2.58.93.56 4.31 6.32 6.8 3.64 1.87 8.35 5.92 1.81 1.56 1.69 2.89 4.68 2.31 1.11-2.85-.12-3.73-.31-6.26 1.63-.27 6.64.12 3.93-5.49-2.36-.53-2.37.68-3.95 1.75-2.72.17-3.63-.9-5.82-2.06.84-2.39 1.68-.94.95-4.38-2.48-.09-1.38 1.33-4.79.74-2.35-.4-2.47-1.04-4.77.21zM258.14 219.99c1.29 2.72.56 4.36-1.59 6.18-2.73 2.32-4.32.91-7.17 1.05.37 1.72 3.59 3.36 5.19 4.09.82-1.9-.76-1.39 1.59-3.26 3.15-2.52 6.13-7.89 3.37-11.32-5.07-6.32-11.03 6.32-15.64 2.54-1.82-5.62 4.63-6.06 8.22-6.12-.54-1.51-2.94-2.84-4.47-3.71-1.27 1.81.86 1.13-1.85 3.35-3.15 2.57-5.6 7.43-2.64 10.56 4.54 4.79 9.78-4.72 14.99-3.36zM49.9 206.81c-.4-1.5-2.07-5.94-3.3-6.44.15 3.9 2.09 2.55-5.89 6.09-3.31 1.47-6.35 3.5-9.07-.37-2.49-3.56-1.13-6.13 2.4-7.8 2.06-.98 7.06-3.54 9.08-3.57l1.98 2.13c.04-1.45-3.38-8.99-4.23-10.09-.04.08-.07.13-.08.26-.01.12-.07.2-.08.25-.09.57-.02.09-.08.8-.08 1.05.41.18-.21 1.26-1.98 3.48-16.63 2.37-11.21 14.71 3.83 8.73 8.62 5.5 15.24 2.42 5.12-2.39 2.45-.27 5.45.35zM273.11 137.39l-7.41.02 5.7 4.74-1.92 6.93c2.2-1.17 3.93-3.06 6.15-3.8l5.88 3.91-1.97-7c1.41-1.34 4.97-3.45 5.74-4.79l-7.03-.02-2.57-6.94c-1.3 1.63-2.01 4.76-2.57 6.95zM113.96 120.47c6.85 1.55 17.17 4.82 22.88 6.01 2.56.53 2.14-1.57.81-2.35-1.83-1.08-6.36-2.57-8.57-3.46-4.58-1.85-31.59-13.47-33.73-13.36l-1.37 4.83 26.31 20.97 3.99-2.7c-.64-2.54-2.28-2.27-5.07-5.11-1.42-1.45-4.34-3.44-5.25-4.83zm23.6 4.78c-1.85 1.11-23.57-7.12-26.18-6 .42 1.11 10.07 9.41 11.67 10.34-.52 1.09-1.2 1.43-2.24 2.36-1.47-.64-24.57-19.11-25.67-20.57l.82-3.24 41.6 17.11zM24.91 137.4H17.7l5.57 4.69-2 6.99c1.49-.22 4.18-2.94 6.11-3.83l5.93 3.93-1.94-7.03c1.38-1.08 5.06-3.56 5.67-4.74l-7.26-.01-2.15-6.75c-1.33 1.43-2.16 4.53-2.72 6.75zM254.86 196.84l5.09 1.94c-.94-3.83-3.36-.94-2.12-8.05l12.87 4.33c2.51 1.08.88 2.3 1.55 3.84 1.06-1.08 3.94-9.05 3.88-10.78-2.56.45 1.52 3.85-7.75.61-2.33-.82-6.63-1.99-8.51-3.11 1.29-5.47 4.29-3.36 6.14-4.69-.54-1.06-3.65-1.84-4.95-2.01l-6.2 17.92zM264 163.45c1.31-1.17.06-1.09 1.5-2.33 2.23.38 4.97 3.54 6.14 5.38-.94 1.06-6.19 3.44-7.76 3.73-.39-1.61.32-1.83-.51-2.79-.92 1.49-1.67 8.69-1.82 10.79 1.6-.97.95-1.59 3.96-3.08 1.6-.79 3.22-1.5 4.8-2.33 2.47-1.29 2.46-1.54 5.33-1.1 4.8.74 2.02 1.75 3.94 3.6l1.56-11.13c-2.16 1.47-.68 2.95-4.5 2.4-4.84-.7-3.32-.36-8.46-5.77-4.05-4.27-1.82-2.3-3.05-4.35-.9.96-1.7 5.67-1.13 6.98zM67.39 244.89l-3.88-3.76 5.76-2.56c-.1 1.16-.42 2.2-.68 3.31-.34 1.42-.32 2.13-1.2 3.01zm-12.57-3.38c.7 1.12 3.97 4.05 5.21 4.5l-1.34-2.54c1.29-1.03 2.13-1.51 3.56-1.75l5.02 4.17-.75 3.99c-2.43-.04-1.26-.6-3.1-.87.3.84 6.93 6.89 8.06 6.97-.97-4.23-.54-3.44.99-9.88.65-2.71 2.25-8.25 2.3-10.73-2.35.12-7.37 2.55-9.86 3.52-1.6.62-3.19 1.33-4.82 1.95-3.32 1.29-2.18.76-5.27.67zM36.03 172.46l1.43 2.46c.77-1.2.06-3.32-.27-5.48-.27-1.8-.31-4.36-1.19-5.7-1.92 3.68 2.73 2.76-9.12 4.57-2.77.42-10.38 2.95-8.98-1.91l3.29.18c1.44-5.08-2.89-5.56-4.09-2.48-.99 2.53-.28 6.2 1.44 8.23 3.31 3.93 12.36.01 17.49.13zM36.72 220.12c1.09-.89 3.28-.4 2.83-2.8-.4-2.13-1.99-2.15-3.68-1.77-2.39 5.7 3.73 12.47 9.4 8.97l9.54-6.26c2.47-1.11 1.5.82 3.6 1.13-.17-.59-4.83-9.13-6.61-9.43.96 2.85 1.87 2.93-1.27 4.81l-9.02 5.98c-2.17 1.57-3.63 2.47-4.79-.63zM249.13 207.9c1.92-.92 1.42-2.85 4.37-1.29 13.62 7.16 10.6 4.36 10.57 8.89 1.39-.63 4.89-8.18 5.5-10.02-3.24.65 1.24 4.02-7.38-.43-2.23-1.16-5.98-2.74-7.89-4.06l.37-3.3c-1.33.57-5.09 8.51-5.54 10.21zM45.86 230.39c.03 1.35 5.92 8.09 7.35 8.79l-1.08-2.86c1.72-1.79 4.68-4.54 6.53-5.9 7.37-5.41 3.54-3.23 7.36-2.05-.46-1.58-6.2-8.3-7.62-8.77.99 2.6 1.94 2.3-.48 4.44l-7.59 6.66c-2.8 2.29-2.49.42-4.47-.31zM23.63 182.04c-.81-.89-1.28-2.03-2.03-2.21-.07 1.52 2.34 9.86 3.15 10.79 1.62-3.28-2.92-2.19 7.12-5.03 10.64-3.02 5.93-1.56 9.29.64l-3.15-10.25-.44 1.59c-.57 1.56-3.02 1.69-5.37 2.34-2.23.62-6.49 2.17-8.57 2.13zM152.86 234.13l-.11-5.24c1.95-1.24 4.26-1.13 6.32-.25.03.03 3.2 9.23-6.21 5.49zm10.15-6.45c-2.51-2.22-6.82-2.37-10.02-1.57-4.84 1.2-3.46 4.26-3.44 8.75 2.95 1.22 3.25 1.98 6.83 1.75 7.45-.48 7.27-1.75 6.63-8.93zM141.25 232.14c-1.77-.79-4.7.38-5.83-.84-1.41-1.53.51-3.2 2.2-3.36 5.46-.54 6.47 3.17 3.36 6.82l-5.85.37c-.11 2.22 1.56 1.74 3.62 1.74 1.82-.01 2.77.18 4.43-.68 2.7-1.39 2.74-5.93 1.79-8.39-1.64-2.38-11.9-2.68-13.05.1-.89 2.15-.22 4.86 2.38 5.21 1.74.24 6.36.78 6.95-.97zM127.7 226.29c-1.67-.31-6-.54-7.4.22l.19 1.39c1.07.59 2.43.35 3.74.34.02 2.21-1.29 9.65 2.77 8.28 1.93-.65 1.17-8.44.7-10.23zM174.48 236.39c.89-1.54.8-8.42.1-10.25l-7.33.18.35 1.85 3.57.06c.09 3.7-1.51 9.22 3.31 8.16zM131.46 69.89c2.69.89 3.84-.1 2.76-2.73-2.47-.98-3.59.18-2.76 2.73z"/><path class="fil2" d="M169.08 263.62c.46-1.21-.03-.76 2.05-1.04 5.48-.74 1.89.06 6.7-1.54 2.63-.87 6.47-1.95 9.16-2.53-.87 1.59-.84.73-2.34 2.14-.02 1.84 2.96 11.9 3.78 14.07l3.08.15c-.94 1.04-9.01 3.08-10.83 3.4 1.27-3.36 3.44 1.02.97-7.64-.55-1.92-1.79-7.05-2.71-8.49-2.6-.26-3.13.28-5.13 1.62-.42 3.81 1.6 11.9 1.78 16.38-3.1-.27-12.75-9.72-16.77-11.5.28 2.65.88 9.24 1.74 11.49l2.86.74c-1.24.91-5.41 1.08-7.22 1.23 1.24-2.17 2.81-.59 2.3-4.45-1-7.63-.38-14.12-7.01-11.48-1.52 7.76 2.08 16.77-9.75 15.87-11.76-.91-6.63-8.93-7.48-17.05-1.57-.71-1.69-.17-2.33-1.48l10.92.79c-.94 1.09-1.31.41-2.97 1.13-.5 2.3-.93 8.58-.85 10.97.14 3.96 3.09 5.08 6.68 4.23 3.69-.86 3.55-4.02 3.72-7.27.52-10.67.43-6.02-2.56-8.61 2.25-.93 6.07.26 8.74-.07 3.13-.4 4.55-1.45 7.02.55 2.74 2.24 7.7 6.17 10.58 7.78-.64-7.75-.52-9.32-4.13-9.39zm-52.86 13.04c-7.51.41-20.14-4.26-16.56-13.87 2.52-6.77 11.3-6.64 16.37-3.45 5 3.15 1.7 1.58 5.18 1.29-.12 1.73-.98 4.43-1.96 5.79-1.9-1.2-1.36-5.11-4.91-6.88-10.14-5.09-14.71 17.02-2.89 15.32.92-1.42 1.47-3.27 1.42-4.96-1.45-1.05-1.64-.51-2.47-1.89 1.8.44 9.89 2.7 10.54 3.86-1.52.78-2.06-1-3.21 1.08-.65 1.16-.62 2.44-1.51 3.71zm-42.16-18.07c1.38-1.27-.58-.07.9-.39 1.83-.39 1.75 1.05 3.34-1.77.71-1.27 1.54-2.83 2.31-4.07.76-1.24 1.9-2.87 2.57-4.19 1.31-2.56-.17-2.56-.58-4.72 1.54.31 3.15 1.56 4.61 2.33 2.19 1.16 1.84 2.1 2.55 4.62.6 2.16 2.3 9.63 3.24 10.89 6.88-9.36 2.8-7.87 2.71-10.29 1.49.5 5.62 2.52 5.82 3.84l-2.9-.17c-1.24 2.18-6.91 12.65-8.26 13.72-2.23-2-4.01-15.67-5.99-19.17-1.21 1.41-2.69 4.38-3.75 6.16-3.26 5.49-1.5 2.83-.08 6.33-2.33-.18-4.18-2.51-6.49-3.12zm127.11-6.4c3.4-.73 8.47-4 11.12-6.17 1.85-1.52 8.82-6.58 10.71-7.08.74 1.98 2.04 2.51 2.44 4.5-2.5-.21-2.78-2.31-6.13-.89-7.41 3.13-2.98 4.46-.8 8.73 4.46-2.44 1.57-4.03 2.74-6.15.77.12 5.03 6.34 4.87 6.8-1.48.97-1.19-2.53-6.74.05.63 1.3 3.01 4.97 4.12 5.74 1.99-.26 3.83-1.95 4.97-3.38 2.16-2.72 1.05-3.84 1.77-6.43 1.39.61 2.18 3.75 2.46 5.37-3.51 1.17-12.51 9.55-15.47 10.25.43-1.68 2.2-1.48.89-3.87l-7.21-10.35c-8.93-.72-3.05 14.72-5.66 20.85-1.18.26-10.75-7.33-12.99-9.05-2.95-2.27-1.53-1.33-3.61-1.97-1.19-.36-.32.36-1.17-.48l9.94-4.32c-1.21 2.3-1.52.3-2.12 2.79l8.89 6.66c.42-2.07.76-9.48-.1-11.14-1.73-.41-.47.36-2.29-.15-2.83-.78 1.91 2.06-.63-.31zM54.82 241.51c3.09.09 1.95.62 5.27-.67 1.63-.62 3.22-1.33 4.82-1.95 2.49-.97 7.51-3.4 9.86-3.52-.05 2.48-1.65 8.02-2.3 10.73-1.53 6.44-1.96 5.65-.99 9.88-1.13-.08-7.76-6.13-8.06-6.97 1.84.27.67.83 3.1.87l.75-3.99-5.02-4.17c-1.43.24-2.27.72-3.56 1.75l1.34 2.54c-1.24-.45-4.51-3.38-5.21-4.5zm169.45-3.36c.67-1.67 7.55-8.26 9.31-9.83 1.76-1.58 4.43-2.98 6.77-1.8 3.13 1.57 1.13 5 .84 6.98 4.01.37 6.89.54 10.89.59l-4.5 4.74c-2.62-.06-8.76-1.24-10.74-.48-.11 1.04 1.91 2.58 2.87 3.45 2.39 2.18 2.19.43 4.28.2-.49 1.2-6.6 7.42-7.79 7.82.95-3.46 2.88-1.53-3.85-7.8-7.93-7.39-4.05-4.58-8.08-3.87zm-178.41-7.76c1.98.73 1.67 2.6 4.47.31l7.59-6.66c2.42-2.14 1.47-1.84.48-4.44 1.42.47 7.16 7.19 7.62 8.77-3.82-1.18.01-3.36-7.36 2.05-1.85 1.36-4.81 4.11-6.53 5.9l1.08 2.86c-1.43-.7-7.32-7.44-7.35-8.79zm212.28-10.4c-5.21-1.36-10.45 8.15-14.99 3.36-2.96-3.13-.51-7.99 2.64-10.56 2.71-2.22.58-1.54 1.85-3.35 1.53.87 3.93 2.2 4.47 3.71-3.59.06-10.04.5-8.22 6.12 4.61 3.78 10.57-8.86 15.64-2.54 2.76 3.43-.22 8.8-3.37 11.32-2.35 1.87-.77 1.36-1.59 3.26-1.6-.73-4.82-2.37-5.19-4.09 2.85-.14 4.44 1.27 7.17-1.05 2.15-1.82 2.88-3.46 1.59-6.18zm-221.42.13c1.16 3.1 2.62 2.2 4.79.63l9.02-5.98c3.14-1.88 2.23-1.96 1.27-4.81 1.78.3 6.44 8.84 6.61 9.43-2.1-.31-1.13-2.24-3.6-1.13l-9.54 6.26c-5.67 3.5-11.79-3.27-9.4-8.97 1.69-.38 3.28-.36 3.68 1.77.45 2.4-1.74 1.91-2.83 2.8zm212.41-12.22c.45-1.7 4.21-9.64 5.54-10.21l-.37 3.3c1.91 1.32 5.66 2.9 7.89 4.06 8.62 4.45 4.14 1.08 7.38.43-.61 1.84-4.11 9.39-5.5 10.02.03-4.53 3.05-1.73-10.57-8.89-2.95-1.56-2.45.37-4.37 1.29zM46.6 200.37c1.23.5 2.9 4.94 3.3 6.44-3-.62-.33-2.74-5.45-.35-6.62 3.08-11.41 6.31-15.24-2.42-5.42-12.34 9.23-11.23 11.21-14.71.62-1.08.13-.21.21-1.26.06-.71-.01-.23.08-.8.01-.05.07-.13.08-.25.01-.13.04-.18.08-.26.85 1.1 4.27 8.64 4.23 10.09l-1.98-2.13c-2.02.03-7.02 2.59-9.08 3.57-3.53 1.67-4.89 4.24-2.4 7.8 2.72 3.87 5.76 1.84 9.07.37 7.98-3.54 6.04-2.19 5.89-6.09zm214.46-21.45c1.3.17 4.41.95 4.95 2.01-1.85 1.33-4.85-.78-6.14 4.69 1.88 1.12 6.18 2.29 8.51 3.11 9.27 3.24 5.19-.16 7.75-.61.06 1.73-2.82 9.7-3.88 10.78-.67-1.54.96-2.76-1.55-3.84l-12.87-4.33c-1.24 7.11 1.18 4.22 2.12 8.05l-5.09-1.94 6.2-17.92zm-237.43 3.12c2.08.04 6.34-1.51 8.57-2.13 2.35-.65 4.8-.78 5.37-2.34l.44-1.59 3.15 10.25c-3.36-2.2 1.35-3.66-9.29-.64-10.04 2.84-5.5 1.75-7.12 5.03-.81-.93-3.22-9.27-3.15-10.79.75.18 1.22 1.32 2.03 2.21zm12.4-9.58c-5.13-.12-14.18 3.8-17.49-.13-1.72-2.03-2.43-5.7-1.44-8.23 1.2-3.08 5.53-2.6 4.09 2.48l-3.29-.18c-1.4 4.86 6.21 2.33 8.98 1.91 11.85-1.81 7.2-.89 9.12-4.57.88 1.34.92 3.9 1.19 5.7.33 2.16 1.04 4.28.27 5.48l-1.43-2.46zm240.61-5.87c3.82.55 2.34-.93 4.5-2.4l-1.56 11.13c-1.92-1.85.86-2.86-3.94-3.6-2.87-.44-2.86-.19-5.33 1.1-1.58.83-3.2 1.54-4.8 2.33-3.01 1.49-2.36 2.11-3.96 3.08.15-2.1.9-9.3 1.82-10.79.83.96.12 1.18.51 2.79 1.57-.29 6.82-2.67 7.76-3.73-1.17-1.84-3.91-5-6.14-5.38-1.44 1.24-.19 1.16-1.5 2.33-.57-1.31.23-6.02 1.13-6.98 1.23 2.05-1 .08 3.05 4.35 5.14 5.41 3.62 5.07 8.46 5.77zM141.14 49.05c55.74-4.95 104.73 36.23 109.79 91.84 1.1 12.14-.8 33.66-5.55 44.47-5.13 11.67-11 21.66-19.16 31.49-16.03 19.32-42.43 31.89-67.23 34.07-55.69 4.91-104.91-36.12-109.94-91.78C43.98 103.15 85.27 54 141.14 49.05zM24.91 137.4c.56-2.22 1.39-5.32 2.72-6.75l2.15 6.75 7.26.01c-.61 1.18-4.29 3.66-5.67 4.74l1.94 7.03-5.93-3.93c-1.93.89-4.62 3.61-6.11 3.83l2-6.99-5.57-4.69h7.21zm248.2-.01c.56-2.19 1.27-5.32 2.57-6.95l2.57 6.94 7.03.02c-.77 1.34-4.33 3.45-5.74 4.79l1.97 7-5.88-3.91c-2.22.74-3.95 2.63-6.15 3.8l1.92-6.93-5.7-4.74 7.41-.02zm-1.15-40.67c3.41.59 2.31-.83 4.79-.74.73 3.44-.11 1.99-.95 4.38 2.19 1.16 3.1 2.23 5.82 2.06 1.58-1.07 1.59-2.28 3.95-1.75 2.71 5.61-2.3 5.22-3.93 5.49.19 2.53 1.42 3.41.31 6.26-2.99.58-2.87-.75-4.68-2.31-4.71-4.05-2.03.88-8.35-5.92-3.14-3.38-.93-3.6-.56-4.31-1.1-1.07-1.53-1.33-1.17-2.95 2.3-1.25 2.42-.61 4.77-.21zm-14.82 18.2c3.38 1.43 7.59-1.46 9.33-1.52.33 2.74-.64 1.7-2.98 3.09-.01 0-9.35 9.18-11.71 1.05-5.06-17.51 4.85-9.26 8.46-13.67-1.34-.61-3.35-.11-5.19-.8-5.7-2.13-8.88-3.48-7.16-9.67 3 .18 4.21 5.76 9.74 5.76.72-1.62.08-3.42 1.48-5.01 2.2-.15 2.64 1.88 3.73 3.77 5.18 8.97 8.51 7.93 7.92 13.5-3.91.18-3.16-3.06-6.98-2.56-2.33.3-6.63-.09-8.21 1.76-.37 1.33.51 3.6 1.57 4.3zm5.13-30.39c2.71-.39 4.33-1.54 6.61-.15-.14 3.26-5.87 2.84-3.38 6.12 2.16.95 2.39-1.59 3.74-2.96l3.08.63c.18-2.45-2.08-4.19.71-6.02 1.16 1.13 5.32 5.43 5.89 6.42 1.58 2.79 5.14 3.92 3.31 6.87-4.79.4-9.21-5.21-12.9-3.13-2.18 1.23-3.44 3.41-6.37 2.56-3.65-1.06-1.54-4.44-2.08-5.18-.78-.49-6.78.45-7.95.87-2.87 1.04-4.24 2.36-7.41.72-.69-2.24-.41-5.33 2.19-5.91 1.71-.38 1.51.31 3.11.35.93.02 2.65-.32 3.67-.42 2.59-.27 5.2-.39 7.78-.77zM27.21 93.89c-.08-2.6-.11-5.72 1.25-8.05 3.75-6.41 10.2 6.56 14.36 9.72 1.52 1.15 4.68 3.06 6.11 1 .67-.97 1.87-5.84 1.92-7.04.12-3.35-7.97-5.2-9.64-8.17 4.29.7 12.21 2.09 15.02 5.24.06.15-2.44 13.77-6.24 15.15-3.46 1.26-9.78-1.42-12.22-3-1.47-.95-1.49-1.91-3.18-1.96-.44 5.05.26 4.36 3.21 7.17 3.85 3.66 6.66 6.63 7.92 12.3.87 3.86.58 4.86-1.6 7.6-3.4.29-2.94-.16-4.86-2.24-1.17-1.28-2.48-2.28-3.11-3.86.89-.58.51-.42 1.88-.19.66.11.34.63.97.08.63-.55-.34-1.51-.83-2.42-4.78-8.7-4.26-3.04-10.09-3.31-.57-3.17-.44-8.45-2.53-10.7-2.03-2.18-6.63-2.8-7.83-5.2.44-4.51 6.34-2.19 9.49-2.12zm73.49-54.14c-1.73-1.15-4.82-1.25-4.74-4.12.07-2.32 10.62-12.25 14.05-11.39 2.12 10.33-5.1 9.29-3.89 13.22 1.85-.63 2.08-1.85 3.44-2.55 1.21-.63 4.01-.14 4.97.34.14 11.35-1.69 3.15-11.6 14.29-2.98-.27-3.39-2.04-5.68-2.23-.26 1.85-.44 8.28-1.12 9.07-4.06 2.33-6.64-4.36-8.27-6.99-1.05-1.71-2.68-3.15-2.86-5.13-.03-.42.41-6.97.49-7.44-3.01-.69-3.17.32-4.85-2.72-1-1.82-.74-4.53 1.18-5.57 1.42.34 1.55.88 2.97 1.42 2.43.94.98.31 2.64 1.87 2.35 2.21 3.39 3.17.07 5.31 1.37 1.72 1.27.82 2.41 3.1.57 1.14 1.25 2.77 1.97 3.73 1.39-1.73 1.27-4.54 2.25-5.98 1.93 1.89 2.21 4.97 2.86 7.48 1.8-1.09 3.76-3.39 3.71-5.71zm98.32-19.7c.99-1.57 1.42-2.18 3.45-1.97.07.15.38 3.91 4.15 5.91 2.87-1.12 1.01-4.16 5.07-1.01-.56 4.31-3.71 1.67-3.93 5.71 1.65.87.57-.31 2.02.39 1.58.76-.38.31 1.31 1.31-.01-1.68-.31-2.97.84-4.15 1.47-.71 4.43.85 5.41 2.11.32.88-.01 5.28-.41 5.93-2.11.71-2.16-.43-4.06.1-.78.21-2.01 1.04-3.11 1.39.87 3.37 7.25 4.7 5.94 8.47-3.16 3.96-11.23-4.19-16.58-1.49 1.88 1.35 5.37-.43 4.17 5.32-4.37 1.99-5.14-2.45-7.56-.12-1.66 1.6-.51 4.09-5.6 4.69-2.59.31-5.62-1.49-7.01-3.28-1.08-1.4-2.93-5.43-1.89-7.18 2.48.39 2.46 5.82 7.02 5.95 1.61-.88 2.65-3.23 2.68-5.09-2.14-.78-4.71-.69-6.54-1.95-.63-2.84 1.09-4.65 3.93-3.32 1.98.92 4.12 1.99 6.02 2.82l1.06-1.47c1.4.69 2.33 1.46 3.97.56-2.7-2.87-7.21-2.54-10.44-3.6-2.06-6.64 4.35-2.64 9.31-.71 3.6 1.4 5.66 2.27 6.83 5.94l3.66-.21c-.14-1.82-9.55-7.17-11.63-8.32-2-1.1-5.45-2.47-7.74-2.49-2.85-.02-4.3 3.31-7.09 1.96-1.29-3.18 4.26-12.07 8.05-8.49.49 2.36-.6.93-.91 3.26l2.59.32c1.13-2.47 1.67-6.22 3.43-8.45 2.44-.34 1.26.42 3.59 1.16zM2.45 155.25c2.64 81.48 71.52 144.95 152.81 142.24 81.65-2.72 145.17-71.65 142.23-153.12-2.94-81.3-71.75-144.9-152.98-141.9C62.98 5.48-.18 73.79 2.45 155.25z"/><path class="fil2" d="M113.96 120.47c.91 1.39 3.83 3.38 5.25 4.83 2.79 2.84 4.43 2.57 5.07 5.11l-3.99 2.7-26.31-20.97 1.37-4.83c2.14-.11 29.15 11.51 33.73 13.36 2.21.89 6.74 2.38 8.57 3.46 1.33.78 1.75 2.88-.81 2.35-5.71-1.19-16.03-4.46-22.88-6.01zM113.85 69c3.02-1.75 7.73-1.14 11.01-2.66 1.98-.91 6.63-4.75 8.2-4.66 1.29.07 6.54 4.16 8.4 4.66 1.81.49 9.72-.56 12.3-.65l1.38 2.97c-2.13 1.28-9.48 1.59-11.73 2.73-1.81.91-18.78 23.43-16.67 26.45 1.86 2.04 14.58-.64 18.1-.96 6.2-.55 12.45-1.04 18.68-1.45 5.78-.38 13.61-1.84 18.72.96 2.8 1.53 9.44 7.72 8.16 11.11-2.78 1.18-2.49.43-4.82-.64-.26 9.48 6.91 12.98 13.44 17.73 2.71 1.97 16.69 11.13 19.15 11.88l-1.4 4.13c-2.24-.45-20.4-11.73-24.06-13.81-11.73-6.66-13.81-9.9-27.81-5.02-15.64 5.47-31.31-.58-45.23-7.43-3.89-1.92-8.63-4.8-12.5-6.32.24-7.03 6.03-13.36 9.98-18.62l11.68-16.47c-3.07-.05-6.15.01-9.22.01-2.3-.01-2.19.19-3.71-1.35-.93-.95-1.61-1.37-2.05-2.59zm47.57 73.6c2.64-2.98 7.05-5.78 10.05-8.26 5.24-4.34 5.42-5.12 12.73-5.82l6.85 12.09 7.02.03 2.36 7.01 8.44-2.66c1.69 1.43 2.7 3.42 3.99 5.16 4.27 5.75 10.31 1.66 16.92 10.07 2.91 3.7 5.24 6.89 6.41 11.57.38 1.51 5.3 9.16 8.57 9.16 5.91-15.04 6.18-36.07 2.89-51.73C230.74 48.68 125.59 20.05 70.96 88.96c-19.25 24.28-27.01 62.83-15.75 91.99l20.87.02c3.77-3.9 8.94-12.76 12.5-15.52 2.03-1.58 7.51-4.04 10.04-4.34 5.49-.66 6.4 2.45 11.48-1.51 2.48-1.93 5.57-4.39 8.12-6.12 3.47-2.35 5.03-4.79 9.27-4.75 9.17.07 5.17-.14 17.26-10.75 4.8.67 12.23 4.41 16.67 4.62zM163.01 227.68c.64 7.18.82 8.45-6.63 8.93-3.58.23-3.88-.53-6.83-1.75-.02-4.49-1.4-7.55 3.44-8.75 3.2-.8 7.51-.65 10.02 1.57zm4.24-1.36l7.33-.18c.7 1.83.79 8.71-.1 10.25-4.82 1.06-3.22-4.46-3.31-8.16l-3.57-.06-.35-1.85zm-26 5.82c-.59 1.75-5.21 1.21-6.95.97-2.6-.35-3.27-3.06-2.38-5.21 1.15-2.78 11.41-2.48 13.05-.1.95 2.46.91 7-1.79 8.39-1.66.86-2.61.67-4.43.68-2.06 0-3.73.48-3.62-1.74l5.85-.37c3.11-3.65 2.1-7.36-3.36-6.82-1.69.16-3.61 1.83-2.2 3.36 1.13 1.22 4.06.05 5.83.84zm-20.95-5.63c1.4-.76 5.73-.53 7.4-.22.47 1.79 1.23 9.58-.7 10.23-4.06 1.37-2.75-6.07-2.77-8.28-1.31.01-2.67.25-3.74-.34l-.19-1.39zm-39.38-7.83l-.1-.06c-.46-.72 15.35-4.28 16.67-4.56 36.5-7.66 61.15 3.2 95.25 4.41 9.47.33 18.92-.25 27.9-3.43 2.57-.91 5-2.65 7.43-3.49-3.61 6.41-23.39 10.45-30.47 11.21-27.85 2.98-48.4-5.05-76.46-5.91-14.34-.44-26.22 1.08-40.22 1.83zm-9.83-10.73c8.28-3.95 30.13-7.32 39.54-7.88 34.83-2.1 73.95 12.61 107.9 6.06 11.52-2.22 11.86-4.5 17.04-6.23-3.33 7.04-27.59 10.92-34.94 11.6-15.02 1.39-28.59.66-43.47-1.52-24.99-3.67-39.47-5.36-64.55-3.78-1.96.12-21.26 1.9-21.34 1.82l-.18-.07zm-6.85-11.19c7.17-3.94 33.84-7.71 42.63-8.27 16.15-1.03 30.37 1.12 46.23 3.42 21.66 3.13 47.78 7.06 69.53 3.03 11.77-2.17 12.52-4.54 18.55-6.63-1.7 3.54-12.68 7.51-16.53 8.6-6.92 1.95-13.92 3-21.06 3.67-15.83 1.49-30.77.79-46.46-1.53-26.57-3.91-43.14-5.71-69.76-4.07-2.3.14-22.5 2.35-22.96 1.87l-.17-.09zm145.42 33.15c13.41-10.15 29.48-28.98 33.87-45.42l-187.06-.01c3.94 16.17 20.92 35.75 34.05 45.62 35.08 26.36 84.14 26.31 119.14-.19z"/><path class="fil2" d="M131.46 69.89c-.83-2.55.29-3.71 2.76-2.73 1.08 2.63-.07 3.62-2.76 2.73zm-16.14-.6c2 5.09 10.5 1.8 14.97 2.92-.33 1.57-10.04 14.25-11.78 16.67-5.23 7.25-8.86 10.66-10.4 18.44 16.62 9.06 37.62 20.51 56.9 13.46 13.86-5.06 16.18-1.47 27.6 4.98 3.94 2.22 7.9 4.73 11.84 6.91 3 1.67 9.06 5.82 11.81 6.74l.73-2.52c-6.77-3.37-13.78-8.59-20.03-12.47-6.41-3.99-14.1-10.82-12.01-19.35 1.94.56.98 2.57 4.84 1.88-.14-3.85-6.25-9.28-9.77-10.58-4.75-1.75-30.9.98-37.49 1.63-3.98.39-14.66 3.27-16.82.18-1.85-4.13 15.23-26.11 16.5-27.23 1.47-1.3 9.49-1.9 10.59-2.47 1.22-.63.65.15 1.01-1.17-1.89-1.71-9.03.33-12 .07-1.78-.15-6.67-3.79-8.69-4.85-2.61.98-5.06 3.1-7.6 4.48-1.67.91-8.06 2-10.2 2.28zM95.14 111.38c1.1 1.46 24.2 19.93 25.67 20.57 1.04-.93 1.72-1.27 2.24-2.36-1.6-.93-11.25-9.23-11.67-10.34 2.61-1.12 24.33 7.11 26.18 6l-41.6-17.11-.82 3.24zM152.86 234.13c9.41 3.74 6.24-5.46 6.21-5.49-2.06-.88-4.37-.99-6.32.25l.11 5.24zM235.92 237.83c4.44-2.83 2.13-8.78-2.13-7.81-1.77.4-3.82 2.23-2.18 4.08.72.82 3.44 3.26 4.31 3.73zM277.39 106.3c-.13-1.26-2.87-4.38-3.68-5.75l-4.69-.71c5.15 3.61 3.58 7.19 8.37 6.46zM67.39 244.89c.88-.88.86-1.59 1.2-3.01.26-1.11.58-2.15.68-3.31l-5.76 2.56 3.88 3.76zM205.4 32.24c.69.28.91.34 1.81-.5.73-.68.73-1.04.98-1.9-1.08.55-2.38 1.47-2.79 2.4z"/></g></svg>